# xmcd CD database file
#
# Track frame offsets:
#	150
#	17581
#	46223
#	69033
#	91500
#	113680
#	139237
#	160726
#	181595
#	204443
#	224926
#	246711
#
# Disc length: 3556 seconds
#
# Revision: 0
# Processed by: cddbd v1.5.1PL0 Copyright (c) Steve Scherf et al.
# Submitted via: CDex 1.51
#
DISCID=9e0de20c
DTITLE=Frankie Ruiz - Exitos Eternos
DYEAR=2003
DGENRE=Salsa
TTITLE0=Que Siga La Fiesta (Inédito)
TTITLE1=La Rueda
TTITLE2=Como Lo Hacen
TTITLE3=Tú Con El
TTITLE4=La Cura
TTITLE5=Esta Cobardia
TTITLE6=Desnúdate Mujer
TTITLE7=Para Darte Fuego
TTITLE8=Mirándote
TTITLE9=Puerto Rico
TTITLE10=Mi Libertad
TTITLE11=Ironía
EXTD=YEAR: 2003
EXTT0=
EXTT1=
EXTT2=
EXTT3=
EXTT4=
EXTT5=
EXTT6=
EXTT7=
EXTT8=
EXTT9=
EXTT10=
EXTT11=
PLAYORDER=
